<svg viewBox="0 0 24 24" fill="none" xmlns="http://www.w3.org/2000/svg">
<path d="M12 0C8.7435 0 8.334 0.015 7.0545 0.072C5.775 0.132 4.9035 0.333 4.14 0.63C3.33914 0.931229 2.61374 1.40374 2.0145 2.0145C1.40411 2.61404 0.931661 3.33936 0.63 4.14C0.333 4.902 0.1305 5.775 0.072 7.05C0.015 8.3325 0 8.7405 0 12.0015C0 15.2595 0.015 15.6675 0.072 16.947C0.132 18.225 0.333 19.0965 0.63 19.86C0.9375 20.649 1.347 21.318 2.0145 21.9855C2.6805 22.653 3.3495 23.064 4.1385 23.37C4.9035 23.667 5.7735 23.8695 7.0515 23.928C8.3325 23.985 8.7405 24 12 24C15.2595 24 15.666 23.985 16.947 23.928C18.2235 23.868 19.098 23.667 19.8615 23.37C20.6618 23.0686 21.3867 22.5961 21.9855 21.9855C22.653 21.318 23.0625 20.649 23.37 19.86C23.6655 19.0965 23.868 18.225 23.928 16.947C23.985 15.6675 24 15.2595 24 12C24 8.7405 23.985 8.3325 23.928 7.0515C23.868 5.775 23.6655 4.902 23.37 4.14C23.0684 3.33934 22.5959 2.61401 21.9855 2.0145C21.3864 1.40351 20.661 0.930967 19.86 0.629999C19.095 0.333 18.222 0.1305 16.9455 0.072C15.6645 0.015 15.258 0 11.997 0H12.0015H12ZM10.9245 2.163H12.0015C15.2055 2.163 15.585 2.1735 16.8495 2.232C18.0195 2.2845 18.6555 2.481 19.0785 2.6445C19.638 2.862 20.0385 3.123 20.4585 3.543C20.8785 3.963 21.138 4.362 21.3555 4.923C21.5205 5.3445 21.7155 5.9805 21.768 7.1505C21.8265 8.415 21.8385 8.7945 21.8385 11.997C21.8385 15.1995 21.8265 15.5805 21.768 16.845C21.7155 18.015 21.519 18.6495 21.3555 19.0725C21.1631 19.5935 20.856 20.0647 20.457 20.451C20.037 20.871 19.638 21.1305 19.077 21.348C18.657 21.513 18.021 21.708 16.8495 21.762C15.585 21.819 15.2055 21.8325 12.0015 21.8325C8.7975 21.8325 8.4165 21.819 7.152 21.762C5.982 21.708 5.3475 21.513 4.9245 21.348C4.40325 21.1559 3.93169 20.8494 3.5445 20.451C3.14513 20.064 2.83759 19.5925 2.6445 19.071C2.481 18.6495 2.2845 18.0135 2.232 16.8435C2.175 15.579 2.163 15.1995 2.163 11.994C2.163 8.79 2.175 8.412 2.232 7.1475C2.286 5.9775 2.481 5.3415 2.646 4.9185C2.8635 4.359 3.1245 3.9585 3.5445 3.5385C3.9645 3.1185 4.3635 2.859 4.9245 2.6415C5.3475 2.4765 5.982 2.2815 7.152 2.2275C8.259 2.1765 8.688 2.1615 10.9245 2.16L10.9245 2.163ZM18.4065 4.155C17.6112 4.155 16.9665 4.79971 16.9665 5.595C16.9665 6.39029 17.6112 7.035 18.4065 7.035C19.2018 7.035 19.8465 6.39029 19.8465 5.595C19.8465 4.79971 19.2018 4.155 18.4065 4.155ZM12.0015 5.838C8.59749 5.83725 5.838 8.59674 5.838 12.0008C5.838 15.4048 8.59749 18.1643 12.0015 18.1643C15.4055 18.1646 18.165 15.4051 18.165 12.0011C18.165 8.59712 15.4055 5.838 12.0015 5.838ZM12.0015 7.9995C14.2109 7.9995 16.002 9.79058 16.002 12C16.002 14.2094 14.2109 16.0005 12.0015 16.0005C9.79208 16.0005 8.001 14.2094 8.001 12C8.001 9.79058 9.79208 7.9995 12.0015 7.9995Z" fill="#8AC028"/>
</svg>
