<svg viewBox="0 0 24 24" fill="none" xmlns="http://www.w3.org/2000/svg">
<mask id="mask0_2083_320" style="mask-type:alpha" maskUnits="userSpaceOnUse" x="0" y="0" width="24" height="24">
<rect width="24" height="24" fill="#8AC028"/>
</mask>
<g mask="url(#mask0_2083_320)">
<path d="M20.4844 1.40625C21.6475 1.40625 22.5938 2.35252 22.5938 3.51562V20.4844C22.5938 21.6475 21.6475 22.5938 20.4844 22.5938H3.51562C2.35252 22.5938 1.40625 21.6475 1.40625 20.4844V3.51562C1.40625 2.35252 2.35252 1.40625 3.51562 1.40625H20.4844ZM20.4844 0H3.51562C1.57725 0 0 1.57725 0 3.51562V20.4844C0 22.4228 1.57725 24 3.51562 24H20.4844C22.4228 24 24 22.4228 24 20.4844V3.51562C24 1.57725 22.4228 0 20.4844 0Z" fill="#8AC028"/>
<rect x="5.625" y="9.25" width="2.875" height="9.75" fill="#8AC028"/>
<rect x="5.625" y="5" width="2.875" height="2.75" fill="#8AC028"/>
<path d="M18.3281 19.0312H15.5156V13.4062C15.5156 12.631 14.8846 12 14.1094 12C13.3341 12 12.7031 12.631 12.7031 13.4062V19.0312H9.89062V9.1875H12.7031V9.71759C13.4399 9.48853 13.9186 9.1875 14.8125 9.1875C16.7199 9.18951 18.3281 10.9006 18.3281 12.9229V19.0312Z" fill="#8AC028"/>
</g>
</svg>
