<svg viewBox="0 0 24 25" fill="none" xmlns="http://www.w3.org/2000/svg">
<mask id="mask0_2083_326" style="mask-type:alpha" maskUnits="userSpaceOnUse" x="0" y="0" width="24" height="25">
<rect width="24" height="24.1257" fill="#8AC028"/>
</mask>
<g mask="url(#mask0_2083_326)">
<path d="M19.4489 12.6539C19.4489 13.9124 19.3345 15.1899 19.3345 15.1899C19.3345 15.1899 19.201 16.2577 18.7625 16.7344C18.2109 17.3412 17.6061 17.3628 17.3071 17.3978C17.2858 17.4003 17.2647 17.4025 17.2434 17.404C15.1461 17.5545 12.0316 17.5733 12.0316 17.5733C12.0316 17.5733 8.19959 17.5173 6.95786 17.4051C6.93341 17.4029 6.90939 17.3995 6.88512 17.3959C6.54309 17.3451 5.81419 17.3412 5.2626 16.7344C4.80499 16.2577 4.69058 15.1899 4.69058 15.1899C4.69058 15.1899 4.57617 13.9124 4.57617 12.6539V11.4717C4.57617 10.2133 4.69058 8.93573 4.69058 8.93573C4.69058 8.93573 4.82405 7.86794 5.2626 7.39125C5.81419 6.78447 6.41901 6.7451 6.71794 6.70888C6.73925 6.7063 6.76037 6.70406 6.78178 6.70253C8.8978 6.55208 12.0125 6.5332 12.0125 6.5332C12.0125 6.5332 15.1269 6.55208 17.2242 6.70253C17.2457 6.70406 17.2668 6.7063 17.2882 6.70888C17.5883 6.74504 18.2109 6.7838 18.7625 7.37218C19.2201 7.84888 19.3345 8.93573 19.3345 8.93573C19.3345 8.93573 19.4489 10.2133 19.4489 11.4717V12.6539Z" fill="#8AC028"/>
<path d="M10.4683 9.69922V14.0848L14.5106 11.9111L10.4683 9.69922Z" fill="white"/>
<path d="M21.7342 21.785C21.1794 22.3403 20.4457 22.6459 19.6692 22.6459H19.6883C20.46 22.6459 21.1884 22.3423 21.7399 21.7907C22.2915 21.2392 22.5951 20.5108 22.5951 19.739V19.72C22.5951 20.4965 22.2896 21.2301 21.7342 21.785ZM4.33693 0.0507812C4.30594 0.0507812 4.27496 0.0512579 4.24397 0.0522113C4.28116 0.0512579 4.31834 0.0507812 4.356 0.0507812H4.33693ZM0.00143007 4.29476C0.0605397 1.98757 1.93679 0.111321 4.24397 0.0522113C1.93203 0.100834 0.0500525 1.98281 0.00143007 4.29476ZM0 4.38771V4.40678C0 4.36912 0.00047669 4.33194 0.00143007 4.29476C0.00047669 4.32574 0 4.35673 0 4.38771Z" fill="#8AC028"/>
<path d="M24.0239 19.8316C24.0248 19.8006 24.0253 19.7697 24.0253 19.7387V19.7196C24.0253 19.7573 24.0248 19.7944 24.0239 19.8316ZM19.7813 24.0742C22.0933 24.0255 23.9753 22.1436 24.0239 19.8316C23.9648 22.1388 22.0885 24.0151 19.7813 24.0742ZM19.6693 24.0756H19.6884C19.7194 24.0756 19.7503 24.0751 19.7813 24.0742C19.7441 24.0751 19.707 24.0756 19.6693 24.0756ZM4.33704 1.48047C3.56527 1.48047 2.83689 1.78412 2.28536 2.33565C1.73383 2.88718 1.43018 3.61557 1.43018 4.38733V4.4064C1.43018 3.62987 1.73574 2.89624 2.29108 2.34137C2.84595 1.78603 3.57957 1.48047 4.35611 1.48047H4.33704Z" fill="#8AC028"/>
<path d="M19.6692 0.0507812H4.356C4.31834 0.0507812 4.28116 0.0512579 4.24397 0.0522113C1.93679 0.111321 0.0605397 1.98757 0.00143007 4.29476C0.00047669 4.33194 0 4.36912 0 4.40678V19.72C0 22.1158 1.96015 24.076 4.356 24.076H19.6692C19.7069 24.076 19.744 24.0755 19.7812 24.0745C22.0884 24.0154 23.9647 22.1392 24.0238 19.832C24.0247 19.7948 24.0252 19.7576 24.0252 19.72V4.40678C24.0252 2.01093 22.065 0.0507812 19.6692 0.0507812ZM22.5951 19.739C22.5951 20.5108 22.2915 21.2392 21.7399 21.7907C21.1884 22.3423 20.46 22.6459 19.6883 22.6459H4.356C3.57947 22.6459 2.84584 22.3403 2.29097 21.785C1.73563 21.2301 1.43007 20.4965 1.43007 19.72V4.38771C1.43007 3.61595 1.73372 2.88757 2.28525 2.33604C2.83678 1.7845 3.56517 1.48085 4.33693 1.48085H19.6692C20.4457 1.48085 21.1794 1.78641 21.7342 2.34176C22.2896 2.89662 22.5951 3.63025 22.5951 4.40678V19.739Z" fill="#8AC028"/>
</g>
</svg>
