<svg width="37" height="48" viewBox="0 0 37 48" fill="none" xmlns="http://www.w3.org/2000/svg">
<path d="M30.513 47.9996H18.8563C18.4776 47.9996 18.1707 47.6926 18.1707 47.3139V0.687388C18.1707 0.421407 18.3247 0.179479 18.5655 0.0666777C18.8064 -0.0461234 19.0908 -0.00944504 19.2952 0.160782L27.5234 7.01762C27.6639 7.13471 27.7517 7.30307 27.7675 7.48526L31.1959 47.2549C31.2124 47.4463 31.1479 47.6358 31.0181 47.7774C30.8883 47.9189 30.705 47.9995 30.513 47.9996ZM19.542 46.6282H29.7656L26.4263 7.88707L19.542 2.15132V46.6282Z" fill="#8AC028"/>
<path d="M34.0503 29.3433C33.6948 29.3429 33.3986 29.0708 33.3681 28.7166L33.1966 26.7281C33.1736 26.3566 33.4512 26.0346 33.822 26.0026C34.1929 25.9706 34.5215 26.2402 34.5625 26.6102L34.734 28.5987C34.7664 28.9758 34.4871 29.3079 34.11 29.3406C34.0902 29.3425 34.0702 29.3434 34.0503 29.3433Z" fill="#8AC028"/>
<path d="M35.6555 48.0007H30.5128C30.1341 48.0007 29.8271 47.6937 29.8271 47.315C29.8271 46.9363 30.1341 46.6293 30.5128 46.6293H34.9081L34.3691 40.3519C34.3371 39.9748 34.6167 39.643 34.9938 39.6107C35.1753 39.5928 35.3563 39.649 35.4959 39.7664C35.6354 39.8839 35.7216 40.0527 35.735 40.2346L36.3384 47.2567C36.3547 47.448 36.2901 47.6373 36.1603 47.7787C36.0305 47.9201 35.8474 48.0006 35.6555 48.0007Z" fill="#8AC028"/>
<path d="M34.6401 36.1794C34.2848 36.1789 33.9887 35.9073 33.9578 35.5533L33.7795 33.5169C33.7464 33.1396 34.0255 32.8071 34.4028 32.7741C34.78 32.7412 35.1126 33.0203 35.1455 33.3975L35.3237 35.4334C35.3569 35.8108 35.0778 36.1436 34.7004 36.1766C34.6803 36.1786 34.6602 36.1795 34.6401 36.1794Z" fill="#8AC028"/>
<path d="M33.4613 22.5551C33.1045 22.5565 32.8063 22.2839 32.7756 21.9284L32.3752 17.2486L27.0543 12.8102C26.7634 12.5675 26.7245 12.1349 26.9672 11.8441C27.2099 11.5532 27.6425 11.5143 27.9333 11.757L33.4737 16.3785C33.6141 16.4956 33.702 16.6639 33.7178 16.8461L34.1422 21.8112C34.1746 22.1886 33.8949 22.5208 33.5175 22.5531L33.4613 22.5551Z" fill="#8AC028"/>
<path d="M18.8563 47.9999H7.1997C7.00715 48.0006 6.82318 47.9204 6.69275 47.7787C6.56232 47.6371 6.49746 47.4471 6.51402 47.2553L9.94244 7.48561C9.95819 7.30341 10.0461 7.13506 10.1865 7.01797L18.4148 0.161131C18.619 -0.0108483 18.9046 -0.0485728 19.1466 0.0644537C19.3885 0.17748 19.5428 0.420692 19.542 0.687736V47.3143C19.542 47.6929 19.235 47.9999 18.8563 47.9999ZM7.9471 46.6286H18.1706V2.15167L11.2864 7.88742L7.9471 46.6286Z" fill="#8AC028"/>
<path d="M7.19964 47.9993H0.685641C0.485402 47.9993 0.295125 47.9117 0.164857 47.7596C0.0345657 47.6074 -0.0226585 47.4059 0.00818328 47.208L3.4366 25.2661C3.46413 25.0894 3.5596 24.9305 3.70265 24.8232L9.02356 20.8325C9.32651 20.6053 9.7563 20.6667 9.98351 20.9696C10.2107 21.2726 10.1493 21.7024 9.84638 21.9296L4.74832 25.753L1.48652 46.6279H7.19964C7.57833 46.6279 7.88532 46.9349 7.88532 47.3136C7.88532 47.6923 7.57833 47.9993 7.19964 47.9993Z" fill="#8AC028"/>
<path d="M7.46774 44.9288C7.1629 44.9291 6.89444 44.7282 6.80887 44.4356C6.7233 44.143 6.84117 43.8291 7.09815 43.6651L18.4874 36.3968C18.8066 36.1931 19.2306 36.2867 19.4343 36.606C19.638 36.9252 19.5444 37.3492 19.2252 37.5529L7.83595 44.8212C7.72595 44.8913 7.59822 44.9287 7.46774 44.9288Z" fill="#8AC028"/>
<path d="M8.13966 37.1394C7.83489 37.1394 7.56674 36.9383 7.48138 36.6458C7.39601 36.3534 7.51389 36.0396 7.77077 35.8757L18.4873 29.0394C18.8066 28.8357 19.2305 28.9293 19.4343 29.2485C19.638 29.5678 19.5444 29.9917 19.2251 30.1955L8.50787 37.0297C8.3981 37.1006 8.27035 37.1387 8.13966 37.1394Z" fill="#8AC028"/>
<path d="M8.80489 29.3552C8.50006 29.3556 8.2316 29.1546 8.14603 28.862C8.06046 28.5694 8.17833 28.2555 8.43531 28.0915L18.4874 21.6804C18.8048 21.4989 19.2086 21.5983 19.4055 21.9063C19.6024 22.2142 19.5231 22.6225 19.2252 22.8344L9.17242 29.2455C9.06296 29.3166 8.93538 29.3546 8.80489 29.3552Z" fill="#8AC028"/>
<path d="M9.47677 21.5802C9.17193 21.5805 8.90348 21.3795 8.81791 21.0869C8.73234 20.7944 8.8502 20.4804 9.10719 20.3164L18.4873 14.3304C18.8066 14.1267 19.2305 14.2203 19.4343 14.5396C19.638 14.8588 19.5444 15.2828 19.2251 15.4865L9.84498 21.4725C9.73499 21.5427 9.60725 21.58 9.47677 21.5802Z" fill="#8AC028"/>
<path d="M10.1482 13.7986C9.84332 13.7989 9.57486 13.5979 9.48929 13.3054C9.40373 13.0128 9.52159 12.6988 9.77857 12.5349L18.4868 6.98082C18.806 6.77708 19.23 6.87071 19.4337 7.18995C19.6374 7.50919 19.5438 7.93314 19.2246 8.13688L10.5164 13.6909C10.4065 13.7614 10.2787 13.7987 10.1482 13.7986Z" fill="#8AC028"/>
</svg>
