<svg viewBox="0 0 29 32" fill="none" xmlns="http://www.w3.org/2000/svg">
<path fill-rule="evenodd" clip-rule="evenodd" d="M20.1038 0C20.7072 0 21.1969 0.489714 21.1969 1.09311L21.1976 2.32878C23.3257 2.47469 25.093 3.20362 26.344 4.45713C27.7096 5.82862 28.4282 7.80059 28.4209 10.1661V23.4627C28.4209 28.319 25.3369 31.336 20.3741 31.336H8.04676C3.08403 31.336 0 28.2768 0 23.3519V10.1632C0 5.58258 2.75036 2.64233 7.23595 2.32928L7.23684 1.09311C7.23684 0.489714 7.72655 0 8.32995 0C8.93335 0 9.42306 0.489714 9.42306 1.09311L9.42262 2.30136H19.0099L19.0107 1.09311C19.0107 0.489714 19.5004 0 20.1038 0ZM26.2347 12.9774H2.18622V23.3519C2.18622 27.0918 4.26751 29.1498 8.04676 29.1498H20.3741C24.1534 29.1498 26.2347 27.1297 26.2347 23.4627V12.9774ZM20.698 22.1483C21.3014 22.1483 21.7911 22.638 21.7911 23.2414C21.7911 23.8448 21.3014 24.3346 20.698 24.3346C20.0946 24.3346 19.5991 23.8448 19.5991 23.2414C19.5991 22.638 20.0815 22.1483 20.6849 22.1483H20.698ZM14.2304 22.1483C14.8338 22.1483 15.3235 22.638 15.3235 23.2414C15.3235 23.8448 14.8338 24.3346 14.2304 24.3346C13.627 24.3346 13.1315 23.8448 13.1315 23.2414C13.1315 22.638 13.6139 22.1483 14.2173 22.1483H14.2304ZM7.74929 22.1483C8.35268 22.1483 8.8424 22.638 8.8424 23.2414C8.8424 23.8448 8.35268 24.3346 7.74929 24.3346C7.14589 24.3346 6.64889 23.8448 6.64889 23.2414C6.64889 22.638 7.13277 22.1483 7.73617 22.1483H7.74929ZM20.698 16.4835C21.3014 16.4835 21.7911 16.9733 21.7911 17.5767C21.7911 18.18 21.3014 18.6698 20.698 18.6698C20.0946 18.6698 19.5991 18.18 19.5991 17.5767C19.5991 16.9733 20.0815 16.4835 20.6849 16.4835H20.698ZM14.2304 16.4835C14.8338 16.4835 15.3235 16.9733 15.3235 17.5767C15.3235 18.18 14.8338 18.6698 14.2304 18.6698C13.627 18.6698 13.1315 18.18 13.1315 17.5767C13.1315 16.9733 13.6139 16.4835 14.2173 16.4835H14.2304ZM7.74929 16.4835C8.35268 16.4835 8.8424 16.9733 8.8424 17.5767C8.8424 18.18 8.35268 18.6698 7.74929 18.6698C7.14589 18.6698 6.64889 18.18 6.64889 17.5767C6.64889 16.9733 7.13277 16.4835 7.73617 16.4835H7.74929ZM19.0099 4.48759H9.42262L9.42306 5.88969C9.42306 6.49308 8.93335 6.9828 8.32995 6.9828C7.72655 6.9828 7.23684 6.49308 7.23684 5.88969L7.23606 4.52067C3.97097 4.79496 2.18622 6.77417 2.18622 10.1632V10.7912H26.2347V10.1632C26.2405 8.36318 25.7566 6.964 24.7961 6.00206C23.953 5.15644 22.7205 4.65141 21.1982 4.52137L21.1969 5.88969C21.1969 6.49308 20.7072 6.9828 20.1038 6.9828C19.5004 6.9828 19.0107 6.49308 19.0107 5.88969L19.0099 4.48759Z" fill="#8AC028"/>
</svg>
